<svg width="24" height="24" viewBox="0 0 24 24" fill="none" xmlns="http://www.w3.org/2000/svg">
<path d="M11 6H9C8.71667 6 8.47934 5.904 8.288 5.712C8.09667 5.52 8.00067 5.28267 8 5C7.99934 4.71734 8.09534 4.48 8.288 4.288C8.48067 4.096 8.718 4 9 4H11V2C11 1.71667 11.096 1.47934 11.288 1.288C11.48 1.09667 11.7173 1.00067 12 1C12.2827 0.999337 12.5203 1.09534 12.713 1.288C12.9057 1.48067 13.0013 1.718 13 2V4H15C15.2833 4 15.521 4.096 15.713 4.288C15.905 4.48 16.0007 4.71734 16 5C15.9993 5.28267 15.9033 5.52034 15.712 5.713C15.5207 5.90567 15.2833 6.00134 15 6H13V8C13 8.28334 12.904 8.521 12.712 8.713C12.52 8.905 12.2827 9.00067 12 9C11.7173 8.99934 11.48 8.90334 11.288 8.712C11.096 8.52067 11 8.28334 11 8V6ZM7 22C6.45 22 5.97934 21.8043 5.588 21.413C5.19667 21.0217 5.00067 20.5507 5 20C4.99934 19.4493 5.19534 18.9787 5.588 18.588C5.98067 18.1973 6.45134 18.0013 7 18C7.54867 17.9987 8.01967 18.1947 8.413 18.588C8.80634 18.9813 9.002 19.452 9 20C8.998 20.548 8.80234 21.019 8.413 21.413C8.02367 21.807 7.55267 22.0027 7 22ZM17 22C16.45 22 15.9793 21.8043 15.588 21.413C15.1967 21.0217 15.0007 20.5507 15 20C14.9993 19.4493 15.1953 18.9787 15.588 18.588C15.9807 18.1973 16.4513 18.0013 17 18C17.5487 17.9987 18.0197 18.1947 18.413 18.588C18.8063 18.9813 19.002 19.452 19 20C18.998 20.548 18.8023 21.019 18.413 21.413C18.0237 21.807 17.5527 22.0027 17 22ZM3 4H2C1.71667 4 1.47934 3.904 1.288 3.712C1.09667 3.52 1.00067 3.28267 1 3C0.999337 2.71734 1.09534 2.48 1.288 2.288C1.48067 2.096 1.718 2 2 2H3.65C3.83334 2 4.00834 2.05 4.175 2.15C4.34167 2.25 4.46667 2.39167 4.55 2.575L8.525 11H15.525L19.15 4.5C19.2333 4.33334 19.35 4.20834 19.5 4.125C19.65 4.04167 19.8167 4 20 4C20.3833 4 20.671 4.16267 20.863 4.488C21.055 4.81334 21.059 5.14234 20.875 5.475L17.3 11.95C17.1167 12.2833 16.871 12.5417 16.563 12.725C16.255 12.9083 15.9173 13 15.55 13H8.1L7 15H18C18.2833 15 18.521 15.096 18.713 15.288C18.905 15.48 19.0007 15.7173 19 16C18.9993 16.2827 18.9033 16.5203 18.712 16.713C18.5207 16.9057 18.2833 17.0013 18 17H7C6.25 17 5.679 16.675 5.287 16.025C4.895 15.375 4.88267 14.7167 5.25 14.05L6.6 11.6L3 4Z" fill="black"/>
</svg>
