<svg width="24" height="24" viewBox="0 0 24 24" fill="none" xmlns="http://www.w3.org/2000/svg">
<path d="M12.03 19.88C12.5287 20.061 13.0788 20.0374 13.5602 19.8145C14.0416 19.5916 14.4154 19.1874 14.6 18.69C14.6936 18.4441 14.737 18.1819 14.7276 17.9189C14.7182 17.6559 14.6562 17.3975 14.5453 17.1589C14.4343 16.9202 14.2767 16.7063 14.0818 16.5295C13.8868 16.3528 13.6584 16.217 13.41 16.13C12.37 15.75 11.22 16.28 10.84 17.31C10.659 17.8087 10.6826 18.3588 10.9055 18.8402C11.1284 19.3216 11.5326 19.6954 12.03 19.88ZM14.1 14.25C16.17 15 17.24 17.3 16.5 19.38C16.124 20.3739 15.3717 21.1798 14.4061 21.6233C13.4404 22.0668 12.339 22.1123 11.34 21.75C9.27 21 8.21 18.7 8.96 16.63C9.72 14.55 12.03 13.5 14.1 14.25ZM8.06 4.58L14.63 7L13.25 10.74L6.68 8.33M3.68 13.62L8.46 15.37C8.29 15.66 8.15 15.96 8.03 16.28C7.91 16.6 7.83 16.93 7.78 17.25L3 15.5M4.46 8.58L12.91 11.68L12.42 13C11.17 13.09 10 13.64 9.11 14.55L3.08 12.34M22 2V4L18.91 4L15.34 13.75C14.7699 13.3956 14.1337 13.1608 13.47 13.06L17.5 2" fill="black"/>
</svg>
