<svg width="48" height="48" viewBox="0 0 48 48" fill="none" xmlns="http://www.w3.org/2000/svg">
<path d="M8.00384 39.3523C8.00505 39.4386 8.02324 39.5238 8.05736 39.603C8.09149 39.6822 8.1409 39.754 8.20275 39.8141C8.26461 39.8742 8.3377 39.9216 8.41786 39.9535C8.49802 39.9854 8.58367 40.0011 8.66993 39.9999H39.3279C39.4142 40.0013 39.5 39.9856 39.5802 39.9537C39.6605 39.9219 39.7337 39.8746 39.7956 39.8144C39.8576 39.7543 39.907 39.6825 39.9412 39.6032C39.9754 39.5239 39.9936 39.4387 39.9948 39.3523V38.5793C40.01 38.346 40.0411 37.1839 39.2748 35.898C38.7915 35.0871 38.09 34.3873 37.1898 33.8163C36.101 33.1258 34.7158 32.6264 33.04 32.3258C32.1893 32.2065 31.3455 32.0423 30.5121 31.834C28.2957 31.2681 28.102 30.7671 28.1003 30.762C28.0872 30.7126 28.0686 30.6649 28.0447 30.6197C28.0262 30.5271 27.9816 30.1751 28.0675 29.2328C28.2847 26.8387 29.5689 25.4239 30.6005 24.2871C30.9255 23.9292 31.2329 23.5898 31.4695 23.258C32.491 21.8264 32.5853 20.197 32.5895 20.0959C32.5933 19.9169 32.5686 19.7383 32.5162 19.5671C32.4152 19.2555 32.2274 19.0618 32.0893 18.9186C32.0567 18.8858 32.0249 18.8521 31.9941 18.8176C31.984 18.8058 31.9571 18.7738 31.9815 18.613C32.0641 18.0948 32.1211 17.5729 32.1524 17.0492C32.1996 16.2054 32.2358 14.9439 32.0177 13.7153C31.9858 13.4806 31.9374 13.2484 31.8729 13.0205C31.6438 12.1745 31.2733 11.4531 30.7613 10.8563C30.6729 10.7595 28.5273 8.49843 22.2983 8.03528C21.4369 7.97128 20.5855 8.0058 19.7468 8.04875C19.4987 8.05432 19.2519 8.08479 19.01 8.1397C18.3666 8.30559 18.1948 8.71317 18.1502 8.94138C18.0752 9.32033 18.2066 9.61338 18.2933 9.80875C18.306 9.83654 18.322 9.87107 18.2942 9.96201C18.1502 10.186 17.922 10.3881 17.6904 10.5793C17.623 10.6357 16.0618 11.9831 15.9759 13.7422C15.7443 15.0803 15.7612 17.1645 16.0348 18.6054C16.0517 18.6854 16.0744 18.8033 16.0365 18.8833C15.7418 19.1469 15.4083 19.4458 15.4092 20.1279C15.4125 20.197 15.5077 21.8256 16.5292 23.258C16.7649 23.5898 17.0723 23.9283 17.3965 24.2862L17.3982 24.2871C18.4298 25.4239 19.7139 26.8387 19.9312 29.2319C20.0162 30.1751 19.9716 30.5262 19.9539 30.6197C19.9298 30.6648 19.9109 30.7126 19.8975 30.762C19.8967 30.7671 19.7038 31.2664 17.4976 31.8315C16.2243 32.1574 14.9713 32.3241 14.9334 32.3283C13.3048 32.6037 11.928 33.0913 10.8408 33.7776C9.94401 34.3443 9.24087 35.0467 8.75246 35.8635C7.971 37.1688 7.99205 38.3578 8.003 38.5751L8.00384 39.3523Z" fill="#6B7280" stroke="#6B7280" stroke-width="2" stroke-linejoin="round"/>
</svg>
