<svg width="26" height="24" viewBox="0 0 26 24" fill="none" xmlns="http://www.w3.org/2000/svg">
<g clip-path="url(#clip0_145_67)">
<path d="M22.313 17.295C21.3026 15.9389 19.8604 14.9676 18.224 14.541L18.173 14.53L16.994 16.52C16.9932 16.7849 16.8876 17.0388 16.7002 17.2262C16.5129 17.4136 16.259 17.5192 15.994 17.52C15.444 17.52 14.994 17.07 14.469 15.746V15.714C14.469 15.3825 14.3373 15.0645 14.1029 14.8301C13.8685 14.5957 13.5505 14.464 13.219 14.464C12.8875 14.464 12.5695 14.5957 12.3351 14.8301C12.1007 15.0645 11.969 15.3825 11.969 15.714V15.747V15.745C11.409 17.07 10.955 17.519 10.406 17.519C10.141 17.5182 9.88713 17.4126 9.69977 17.2252C9.5124 17.0378 9.40679 16.7839 9.406 16.519L8.264 14.525C6.61624 14.9441 5.16075 15.9128 4.138 17.271L4.124 17.29C3.71965 17.9535 3.494 18.7104 3.469 19.487V19.494C3.474 19.644 3.469 19.819 3.469 19.994V21.994C3.469 22.5244 3.67971 23.0331 4.05479 23.4082C4.42986 23.7833 4.93857 23.994 5.469 23.994H20.969C21.4994 23.994 22.0081 23.7833 22.3832 23.4082C22.7583 23.0331 22.969 22.5244 22.969 21.994V19.994C22.969 19.82 22.964 19.644 22.969 19.494C22.9448 18.7082 22.7152 17.9424 22.303 17.273L22.314 17.293L22.313 17.295ZM7.968 5.28998C7.968 8.20998 9.788 12.5 13.218 12.5C16.588 12.5 18.468 8.20998 18.468 5.28998V5.22498C18.468 4.53554 18.3322 3.85285 18.0684 3.21589C17.8045 2.57893 17.4178 2.00017 16.9303 1.51267C16.4428 1.02516 15.864 0.638445 15.2271 0.374608C14.5901 0.110771 13.9074 -0.0250244 13.218 -0.0250244C12.5286 -0.0250244 11.8459 0.110771 11.2089 0.374608C10.572 0.638445 9.9932 1.02516 9.50569 1.51267C9.01818 2.00017 8.63147 2.57893 8.36763 3.21589C8.1038 3.85285 7.968 4.53554 7.968 5.22498V5.29298V5.28998ZM19.202 7.00998C19.202 8.91198 20.388 11.708 22.622 11.708C24.817 11.708 26.042 8.91298 26.042 7.00998V6.95798C26.042 6.05067 25.6816 5.18053 25.04 4.53896C24.3985 3.8974 23.5283 3.53698 22.621 3.53698C21.7137 3.53698 20.8436 3.8974 20.202 4.53896C19.5604 5.18053 19.2 6.05067 19.2 6.95798V7.01298V7.00998H19.202ZM0.002 8.60997C0.002 10.512 1.188 13.308 3.422 13.308C5.617 13.308 6.842 10.513 6.842 8.60997V8.55797C6.842 7.65067 6.48157 6.78053 5.84001 6.13896C5.19845 5.4974 4.32831 5.13698 3.421 5.13698C2.51369 5.13698 1.64355 5.4974 1.00199 6.13896C0.360426 6.78053 0 7.65067 0 8.55797L0 8.61298V8.60997H0.002Z" fill="#6B7280"/>
</g>
<defs>
<clipPath id="clip0_145_67">
<rect width="26" height="24" fill="white"/>
</clipPath>
</defs>
</svg>
