<svg width="24" height="19" viewBox="0 0 24 19" fill="none" xmlns="http://www.w3.org/2000/svg">
<path d="M18.9 13.0626H5.115C4.95 13.0626 4.815 13.1961 4.815 13.3594L4.81125 15.1407C4.81125 15.304 4.94625 15.4376 5.11125 15.4376H18.9C19.065 15.4376 19.2 15.304 19.2 15.1407V13.3594C19.2 13.1961 19.065 13.0626 18.9 13.0626ZM18.9 16.6251H5.10375C4.93875 16.6251 4.80375 16.7586 4.80375 16.9219L4.8 18.7032C4.8 18.8665 4.935 19.0001 5.1 19.0001H18.9C19.065 19.0001 19.2 18.8665 19.2 18.7032V16.9219C19.2 16.7586 19.065 16.6251 18.9 16.6251ZM18.9 9.50005H5.1225C4.9575 9.50005 4.8225 9.63365 4.8225 9.79693L4.81875 11.5782C4.81875 11.7415 4.95375 11.8751 5.11875 11.8751H18.9C19.065 11.8751 19.2 11.7415 19.2 11.5782V9.79693C19.2 9.63365 19.065 9.50005 18.9 9.50005ZM22.8938 4.34185L12.69 0.137356C12.4707 0.0473207 12.2356 0.000976563 11.9981 0.000976562C11.7607 0.000976563 11.5256 0.0473207 11.3063 0.137356L1.10625 4.34185C0.43875 4.62017 0 5.26587 0 5.98579V18.7032C0 18.8665 0.135 19.0001 0.3 19.0001H3.3C3.465 19.0001 3.6 18.8665 3.6 18.7032V9.50005C3.6 8.84693 4.1475 8.31255 4.8225 8.31255H19.1775C19.8525 8.31255 20.4 8.84693 20.4 9.50005V18.7032C20.4 18.8665 20.535 19.0001 20.7 19.0001H23.7C23.865 19.0001 24 18.8665 24 18.7032V5.98579C24 5.26587 23.5613 4.62017 22.8938 4.34185Z" fill="#6B7280"/>
</svg>
